<?xml version="1.0" standalone="no"?>
<!DOCTYPE svg PUBLIC "-//W3C//DTD SVG 20010904//EN"
 "http://www.w3.org/TR/2001/REC-SVG-20010904/DTD/svg10.dtd">
<svg version="1.0" xmlns="http://www.w3.org/2000/svg"
 width="500.000000pt" height="500.000000pt" viewBox="0 0 500.000000 500.000000"
 preserveAspectRatio="xMidYMid meet">

<g transform="translate(0.000000,500.000000) scale(0.100000,-0.100000)"
fill="#000000" stroke="none">
<path d="M1678 3831 c-60 -12 -202 -71 -234 -96 l-29 -24 113 -1 c110 0 114
-1 190 -39 88 -44 156 -111 217 -211 33 -55 40 -75 43 -132 4 -61 1 -74 -37
-156 -23 -49 -41 -92 -41 -95 0 -4 -29 -67 -65 -142 -36 -74 -65 -137 -65
-141 0 -7 -213 -498 -265 -609 -17 -38 -47 -105 -65 -148 -19 -44 -46 -98 -61
-121 -36 -53 -108 -106 -157 -113 -46 -7 -74 -21 -67 -34 4 -5 120 -9 286 -9
237 0 279 2 279 15 0 8 -16 18 -36 24 -103 28 -101 109 8 361 61 139 57 136
166 139 l52 1 24 53 c13 28 21 55 19 60 -2 4 -36 7 -74 7 -80 0 -78 -5 -34 95
80 179 177 412 200 479 17 51 29 116 35 190 12 139 35 216 100 329 27 48 50
91 50 96 0 5 -29 36 -66 70 -136 127 -318 184 -486 152z"/>
<path d="M2510 3687 c-106 -33 -156 -61 -221 -126 -100 -101 -149 -227 -149
-387 0 -83 5 -119 26 -184 22 -71 33 -89 82 -138 54 -54 315 -234 542 -373
108 -66 226 -171 273 -244 36 -55 60 -155 55 -229 -8 -127 -109 -270 -231
-327 -86 -40 -163 -52 -292 -46 -93 4 -123 9 -193 37 -103 40 -194 110 -262
204 -61 83 -77 136 -86 281 -7 132 3 198 50 303 18 42 32 80 29 85 -2 4 -13 7
-23 7 -13 0 -31 -21 -56 -62 -114 -195 -135 -456 -50 -631 68 -140 149 -220
293 -292 237 -117 602 -105 851 27 121 65 192 128 257 231 81 129 115 283 96
432 -34 250 -213 443 -636 685 -260 148 -308 183 -367 264 -24 34 -28 48 -28
105 1 90 24 138 92 190 85 64 124 75 263 74 161 -1 212 -20 278 -101 43 -52
87 -142 87 -177 0 -9 10 -15 24 -15 26 0 28 13 42 281 l7 126 -34 7 c-18 3
-171 9 -339 11 -299 5 -307 5 -380 -18z"/>
<path d="M2196 2804 c4 -16 36 -107 71 -203 34 -96 63 -176 63 -178 0 -2 -42
-3 -93 -3 -93 0 -94 0 -106 -27 -7 -16 -15 -43 -17 -60 l-4 -33 140 0 c117 0
140 -2 140 -15 0 -27 69 -186 173 -399 l102 -208 55 5 c73 7 160 43 218 91 92
75 93 104 13 269 -33 67 -76 171 -96 231 -19 61 -42 118 -51 127 -9 10 -47 37
-86 61 -173 106 -303 197 -505 352 l-24 18 7 -28z"/>
<path d="M3145 1539 c-33 -15 -100 -44 -149 -63 -49 -20 -91 -38 -95 -42 -10
-10 91 -96 165 -140 178 -105 353 -147 525 -125 106 14 192 41 226 73 43 40
32 47 -85 46 -84 0 -119 5 -160 20 -82 32 -180 95 -251 162 -109 104 -106 102
-176 69z"/>
</g>
</svg>
